# xmcd
#
# Track frame offsets: 
#        183
#        10513
#        31633
#        41613
#        57858
#        81783
#        100333
#        115350
#        134503
#        151820
#        164565
#
# Disc length: 2431 seconds
#
# Revision: 6
# Processed by: cddbd v1.5.2PL0 Copyright (c) Steve Scherf et al.
# Submitted via: ExactAudioCopy v1.0b2
#
DISCID=80097d0b
DTITLE=John Mayall and The Bluesbreakers - A Sense Of Place
DYEAR=1990
DGENRE=Blues
TTITLE0=I Want To Go
TTITLE1=Congo Square
TTITLE2=Send Me Down To Vicksburg
TTITLE3=Without Her
TTITLE4=Sensitive Kind
TTITLE5=Jacksboro Highway
TTITLE6=Let's Work Together
TTITLE7=I Can't Explain
TTITLE8=Black Cat Woman
TTITLE9=Sugarcane
TTITLE10=All Of My Life
EXTD=By Pershing
EXTT0=
EXTT1=
EXTT2=
EXTT3=
EXTT4=
EXTT5=
EXTT6=
EXTT7=
EXTT8=
EXTT9=
EXTT10=
PLAYORDER=
